<?xml version="1.0" encoding="utf-8"?>
<!-- Generator: Adobe Illustrator 15.0.0, SVG Export Plug-In . SVG Version: 6.00 Build 0)  -->
<!DOCTYPE svg PUBLIC "-//W3C//DTD SVG 1.1//EN" "http://www.w3.org/Graphics/SVG/1.1/DTD/svg11.dtd">
<svg version="1.1" id="Layer_1" xmlns="http://www.w3.org/2000/svg" xmlns:xlink="http://www.w3.org/1999/xlink" x="0px" y="0px"
	 width="25px" height="25px" viewBox="0 0 25 25" enable-background="new 0 0 25 25" xml:space="preserve">
<g>
	<path fill="#C9302C" d="M0,22.876l10.146,0.053l3.311-3.286c0,0,0.76,0.222,1.438,0.071c0.703-0.152,1.43-0.809,1.43-0.809
		l8.365-8.335c0.432-0.428,0.404-1.124-0.023-1.555c-0.428-0.431-1.125-0.434-1.557-0.007l-5.955,5.962l-2.025-2.043
		c0,0,0.284,1.893-0.623,3.639c-0.325,0.628-0.791,1.151-1.182,1.503l-0.386-0.386c0.439-0.411,1.028-1.144,1.397-2.413
		c0.618-2.118-2.65-6.227-3.64-7.675l1.351,0.003c0.598-0.003,1.081-0.489,1.077-1.087c-0.003-0.598-0.489-1.079-1.087-1.077
		L8.661,5.453C8.119,5.442,7.869,5.89,7.016,8.93c-0.068,0.156,0.342,1.688,0.419,1.951l1.188,3.513L0,22.876z"/>
	<path fill="#C9302C" d="M19.922,3.961c0.428-0.432,0.425-1.127-0.007-1.554c-0.431-0.426-1.165-0.459-1.593-0.028l-5.655,5.645
		c-0.427,0.431-0.252,1.051,0.005,1.424c0.004,0.007,0.352,0.549,0.667,1.04L19.922,3.961z"/>
	<path fill="#C9302C" d="M16.52,7.978c0.43-0.428,1.127-0.428,1.557,0.003c0.428,0.429,0.427,1.127-0.004,1.556l-1.998,1.992
		c-0.43,0.429-1.127,0.428-1.556-0.002s-0.429-1.127,0.003-1.556L16.52,7.978L16.52,7.978z"/>
	<path fill="#C9302C" d="M18.42,9.884c0.431-0.429,1.127-0.428,1.555,0.003c0.43,0.429,0.428,1.127-0.002,1.556l-1.998,1.992
		c-0.431,0.429-1.127,0.428-1.556-0.002c-0.43-0.431-0.428-1.127,0.002-1.556L18.42,9.884L18.42,9.884z"/>
</g>
</svg>
