<svg xmlns="http://www.w3.org/2000/svg" xmlns:xlink="http://www.w3.org/1999/xlink" version="1.1" x="0px" y="0px" viewBox="0 0 100 125" enable-background="new 0 0 100 100" xml:space="preserve"><g><path d="M65.505,66.11l4.719-13.948c0.302-1.041,1.933-7.124,1.661-7.744c-3.386-12.069-4.38-13.847-6.536-13.802l-13.394-0.074   c-2.377-0.01-4.305,1.902-4.318,4.274c-0.013,2.373,1.901,4.303,4.276,4.314l5.359-0.011c-3.923,5.746-16.901,22.062-14.448,30.471   c1.469,5.041,3.804,7.946,5.548,9.579l-1.533,1.535c-1.55-1.397-3.401-3.476-4.692-5.965c-3.602-6.936-2.471-14.45-2.471-14.45   l-8.046,8.111L7.985,44.73c-1.712-1.696-4.481-1.684-6.176,0.028c-1.701,1.715-1.807,4.475-0.093,6.175L34.93,84.022   c0,0,2.88,2.607,5.675,3.217c2.691,0.591,5.704-0.289,5.704-0.289L59.453,100l40.287-0.209L65.505,66.11z"/><path d="M46.777,50.605c1.253-1.95,2.631-4.102,2.65-4.131c1.022-1.48,1.717-3.942,0.021-5.652L26.992,18.411   c-1.693-1.713-4.609-1.582-6.32,0.11c-1.715,1.697-1.73,4.457-0.028,6.172L46.777,50.605z"/><path d="M34.153,40.638l7.934,7.913c1.71,1.703,1.714,4.468,0.01,6.179c-1.701,1.705-4.473,1.709-6.177,0.006l-7.935-7.911   c-1.709-1.701-1.713-4.471-0.011-6.175C29.677,38.939,32.446,38.938,34.153,40.638L34.153,40.638z"/><path d="M26.608,48.206l7.936,7.914c1.706,1.701,1.714,4.467,0.007,6.177c-1.701,1.705-4.466,1.709-6.175,0.008l-7.931-7.911   c-1.712-1.702-1.718-4.471-0.014-6.175C22.134,46.508,24.898,46.504,26.608,48.206L26.608,48.206z"/></g><text x="0" y="115" fill="#000000" font-size="5px" font-weight="bold" font-family="'Helvetica Neue', Helvetica, Arial-Unicode, Arial, Sans-serif">Created by Luis Prado</text><text x="0" y="120" fill="#000000" font-size="5px" font-weight="bold" font-family="'Helvetica Neue', Helvetica, Arial-Unicode, Arial, Sans-serif">from the Noun Project</text></svg>