<?xml version="1.0" encoding="utf-8"?>
<!-- Generator: Adobe Illustrator 15.0.0, SVG Export Plug-In . SVG Version: 6.00 Build 0)  -->
<!DOCTYPE svg PUBLIC "-//W3C//DTD SVG 1.1//EN" "http://www.w3.org/Graphics/SVG/1.1/DTD/svg11.dtd">
<svg version="1.1" id="Layer_1" xmlns="http://www.w3.org/2000/svg" xmlns:xlink="http://www.w3.org/1999/xlink" x="0px" y="0px"
	 width="32.673px" height="32.673px" viewBox="0 0 32.673 32.673" enable-background="new 0 0 32.673 32.673" xml:space="preserve">
<g>
	<g>
		<path fill-rule="evenodd" clip-rule="evenodd" fill="#FFFFFF" d="M32.525,19.711c-0.107,0.192-0.493,0.3-0.729,0.406
			c-0.257,0.108-0.514,0.192-0.75,0.278c-0.021,0.408-0.278,0.429-0.622,0.579c-2.593,1.028-5.335,2.144-7.907,3.149
			c0.065,0.536,0,1.093-0.063,1.565c0.214,0.106,0.514,0.234,0.836,0.364c0.45,0.192,0.985,0.278,0.835,0.965
			c0.3-0.109,0.643-0.302,1.028-0.344c0.429-0.064,0.879,0,1.265,0.128c0.685,0.216,1.307,0.58,1.756,1.071
			c0.235,0.258,0.386,0.536,0.6,0.814c0.386,0.535,0.922,0.943,1.437,1.394c0.213,0.213,0.664,0.471,0.664,0.749
			c0.022,0.601-0.792,0.408-1.307,0.364c-0.342-0.021-0.771-0.042-1.114-0.042c-0.814,0-1.371,0.236-2.143,0.172
			c-1.35-0.107-2.442-0.794-2.871-1.8c-0.043-0.13-0.086-0.258-0.128-0.429c-0.15,0.085-0.278,0.299-0.493,0.319
			c-0.321,0.044-0.793-0.255-1.05-0.363c-0.364-0.149-0.706-0.256-0.986-0.386c-1.049,0.944-2.721,1.35-4.67,1.329
			c-0.9,0-1.779-0.15-2.55-0.408c-0.772-0.255-1.372-0.643-1.864-1.134c-1.757,0.728-3.643,1.477-5.486,2.205
			c-0.257,0.109-0.557,0.28-0.771,0.322c-0.3,0.042-0.644,0-0.943,0c-0.579-0.021-1.2-0.021-1.821-0.042
			c-0.493,0-1.071,0.107-1.071-0.408c0.021-0.257,0.364-0.515,0.557-0.707c0.472-0.471,0.836-0.835,1.286-1.284
			c0.214-0.195,0.429-0.494,0.643-0.622c0.236-0.13,0.515-0.216,0.772-0.322c1.779-0.707,3.621-1.436,5.378-2.143
			c-0.043-0.406-0.086-0.899-0.043-1.329c-3.085-1.478-6.257-2.998-9.107-4.777c-0.171-0.13-0.385-0.236-0.599-0.387
			c-0.193-0.148-0.45-0.299-0.472-0.536c-0.043-0.707,1.136-0.341,1.564-0.234c2.829,0.599,5.442,1.584,7.929,2.442
			c-0.043-0.385-0.386-0.45-0.643-0.621c-0.922-0.622-1.394-2.185-1.093-3.729c0.022-0.106,0.043-0.234,0.063-0.364
			c0.022-0.107,0.065-0.278,0.065-0.343c-0.022-0.107-0.3-0.385-0.386-0.471c-0.878-1.092-1.479-2.442-1.736-4.178
			C5.441,8.697,5.998,6.833,6.855,5.461c0.901-1.393,2.1-2.421,3.707-3.063c2.229-0.922,5.85-1.394,8.828-0.793
			c0.943,0.214,1.843,0.429,2.636,0.728c1.65,0.622,2.872,1.715,3.75,3.042c0.879,1.351,1.478,3.236,1.243,5.422
			c-0.214,2.035-1.028,3.407-2.164,4.585c0.471,1.586,0.256,3.879-0.901,4.543c0,0.021,0,0.021,0,0.044
			c1.586-0.666,3.322-1.329,4.972-1.994c0.364-0.148,0.707-0.406,1.049-0.172c0.343-0.148,0.707-0.299,1.093-0.471
			c0.149-0.042,0.278-0.107,0.428-0.086c0.194,0.021,0.386,0.236,0.536,0.385c0.171,0.195,0.279,0.344,0.386,0.559
			C32.611,18.554,32.783,19.303,32.525,19.711z"/>
	</g>
	<g>
		<path fill-rule="evenodd" clip-rule="evenodd" d="M31.04,20.404c-0.023,0.398-0.274,0.419-0.625,0.562
			c-2.589,1.035-5.328,2.155-7.889,3.161c0.046,0.538-0.013,1.091-0.083,1.565c0.226,0.109,0.519,0.227,0.841,0.362
			c0.46,0.194,0.998,0.28,0.839,0.971c0.301-0.125,0.634-0.301,1.038-0.362c0.418-0.062,0.87,0.011,1.251,0.132
			c0.693,0.223,1.318,0.593,1.764,1.072c0.236,0.253,0.381,0.546,0.592,0.822c0.397,0.525,0.921,0.929,1.434,1.399
			c0.217,0.201,0.663,0.458,0.673,0.741c0.025,0.603-0.791,0.397-1.316,0.364c-0.341-0.023-0.755-0.034-1.105-0.034
			c-0.806,0-1.371,0.229-2.141,0.166c-1.346-0.111-2.438-0.804-2.865-1.796c-0.061-0.138-0.101-0.274-0.148-0.445
			c-0.146,0.09-0.26,0.303-0.494,0.33c-0.312,0.033-0.772-0.255-1.038-0.364c-0.371-0.146-0.709-0.259-0.99-0.393
			c-1.038,0.941-2.727,1.354-4.66,1.332c-0.917-0.008-1.787-0.142-2.553-0.396c-0.776-0.255-1.371-0.658-1.862-1.136
			c-1.77,0.722-3.658,1.478-5.499,2.208c-0.257,0.1-0.546,0.273-0.774,0.312c-0.293,0.05-0.632,0.011-0.939,0
			c-0.573-0.019-1.195-0.025-1.812-0.031c-0.504-0.007-1.084,0.096-1.069-0.412c0.006-0.269,0.352-0.52,0.559-0.725
			c0.458-0.458,0.833-0.822,1.285-1.27c0.211-0.208,0.415-0.488,0.643-0.626c0.222-0.132,0.509-0.205,0.774-0.312
			c1.762-0.712,3.618-1.455,5.369-2.158c-0.038-0.401-0.077-0.889-0.033-1.318c-3.104-1.489-6.257-2.996-9.109-4.792
			c-0.18-0.114-0.389-0.226-0.609-0.38c-0.199-0.139-0.448-0.306-0.46-0.526c-0.042-0.709,1.134-0.338,1.565-0.247
			c2.81,0.598,5.426,1.6,7.922,2.453c-0.038-0.383-0.381-0.445-0.643-0.626c-0.917-0.625-1.394-2.179-1.105-3.738
			c0.019-0.092,0.04-0.219,0.067-0.346c0.021-0.107,0.073-0.28,0.065-0.346c-0.015-0.112-0.299-0.381-0.378-0.478
			c-0.89-1.086-1.478-2.441-1.746-4.183C5.433,8.692,5.998,6.821,6.86,5.465c0.891-1.398,2.094-2.428,3.689-3.08
			C12.78,1.476,16.402,1,19.378,1.611c0.946,0.195,1.846,0.422,2.653,0.725c1.645,0.62,2.867,1.704,3.737,3.031
			c0.883,1.346,1.477,3.24,1.253,5.418c-0.211,2.036-1.04,3.408-2.174,4.595c0.479,1.574,0.264,3.871-0.889,4.546
			c-0.004,0.013-0.017,0.017-0.017,0.033c1.59-0.648,3.323-1.326,4.991-1.994c0.348-0.139,0.708-0.409,1.038-0.164
			c0.352-0.149,0.713-0.306,1.103-0.462c0.132-0.053,0.272-0.111,0.412-0.098c0.201,0.019,0.402,0.238,0.542,0.396
			c0.163,0.179,0.289,0.329,0.396,0.543c0.186,0.369,0.347,1.112,0.1,1.532c-0.106,0.178-0.494,0.302-0.726,0.394
			C31.529,20.216,31.276,20.299,31.04,20.404z M26.264,9.929c0-2.886-1.358-4.799-3.015-6.061c-0.561-0.427-1.268-0.721-2.059-0.972
			c-1.473-0.467-3.337-0.835-5.353-0.741c-1.875,0.087-3.52,0.403-4.893,0.955c-1.423,0.573-2.434,1.385-3.26,2.586
			c-0.787,1.145-1.387,2.683-1.187,4.595c0.169,1.604,0.699,3.015,1.434,4.051c0.04,0.058,0.125,0.183,0.165,0.148
			c0.105-0.615,0.124-1.272,0.065-1.895c-0.056-0.595-0.324-1.088-0.46-1.564C7.559,10.542,7.5,9.819,7.553,9.188
			c0.04-0.489,0.308-1.239,0.791-1.235c0.243,0.002,0.397,0.188,0.396,0.412C8.733,8.661,8.467,8.747,8.392,8.99
			c-0.115,0.378-0.044,0.861,0,1.302c0.09,0.891,0.498,1.405,0.577,2.289c0.126,1.422-0.19,2.65-0.412,3.838
			C8.4,17.261,8.534,18.26,8.871,18.856c0.295,0.521,0.879,0.742,1.481,0.939c0.525,0.172,1.04,0.324,1.434,0.592
			c0.845,0.58,1.325,1.218,1.58,2.455c0.81,0.27,1.94,0.284,3.032,0.264c1.09-0.021,2.197-0.009,2.963-0.329
			c0.055-0.782,0.41-1.253,0.791-1.663c0.574-0.617,1.325-1.059,2.208-1.352c0.414-0.137,0.887-0.264,1.234-0.545
			c0.569-0.456,0.797-1.672,0.676-2.634c-0.106-0.862-0.354-1.652-0.443-2.52c-0.105-0.99-0.011-1.883,0.247-2.619
			c0.122-0.347,0.264-0.709,0.312-1.169c0.046-0.431,0.14-0.959,0-1.351c-0.08-0.225-0.36-0.313-0.345-0.625
			C24.048,8.1,24.22,7.91,24.469,7.92c0.203,0.007,0.421,0.244,0.542,0.445c0.371,0.609,0.258,1.91,0.067,2.602
			c-0.132,0.475-0.408,0.998-0.463,1.532c-0.064,0.646-0.025,1.238,0.05,1.845C25.628,13.267,26.264,11.858,26.264,9.929z
			 M31.354,18.098c-0.306,0.135-0.624,0.257-0.939,0.379c0.15,0.37,0.345,0.696,0.445,1.119c0.339-0.108,0.649-0.251,0.971-0.379
			C31.852,18.666,31.619,18.365,31.354,18.098z M29.508,18.592c-0.111,0.064-0.266,0.086-0.362,0.165
			c0.284,0.463,0.517,0.976,0.642,1.599c0.14-0.042,0.245-0.117,0.396-0.148C30.054,19.574,29.83,19.034,29.508,18.592z
			 M28.388,19.054c-0.098,0.011-0.153,0.067-0.247,0.082c0.259,0.491,0.508,0.994,0.642,1.613c0.103-0.006,0.146-0.073,0.247-0.082
			C28.924,20.021,28.679,19.515,28.388,19.054z M10.302,23.254c-0.05-0.615-0.213-1.115-0.378-1.613
			c-2.415-0.879-4.899-1.776-7.494-2.424C4.943,20.674,7.593,21.997,10.302,23.254z M27.351,19.45
			c-0.073,0.059-0.197,0.065-0.264,0.132c0.287,0.461,0.517,0.976,0.642,1.597c0.094-0.044,0.218-0.057,0.281-0.132
			C27.905,20.4,27.664,19.887,27.351,19.45z M22.952,21.229c-0.236,0.636-0.473,1.272-0.542,2.075
			c1.532-0.594,3.03-1.22,4.562-1.812c-0.111-0.646-0.345-1.17-0.659-1.616C25.193,20.327,24.065,20.77,22.952,21.229z
			 M10.847,21.919c0.123,0.429,0.291,0.908,0.264,1.45c0,0.01,0.002,0.022,0,0.033c-0.069,0.441-0.151,0.858-0.132,1.269
			c0.069,1.423,0.485,2.278,1.186,3.063c0.463,0.517,0.971,0.897,1.697,1.119c1.385,0.425,3.618,0.46,4.974-0.017
			c0.722-0.256,1.241-0.624,1.711-1.12c0.701-0.738,1.166-1.665,1.187-3.046c0.008-0.49-0.09-0.877-0.115-1.302
			c-0.032-0.52,0.117-1.023,0.247-1.45c0.132-0.436,0.331-0.921,0.444-1.285c-0.117,0.042-0.226,0.092-0.345,0.132
			c-0.396,1-0.747,1.952-0.988,3.047c-0.082,0.375-0.107,0.762-0.182,1.17c0.002,0-0.013,0.011-0.017,0.017
			c-0.103,0.291-0.438,0.573-0.758,0.791c-0.322,0.22-0.69,0.397-1.038,0.527c-1.988,0.751-5.016,0.454-6.422-0.577
			c-0.203-0.146-0.703-0.547-0.774-0.789c-0.059-0.195-0.04-0.436-0.067-0.643c-0.161-1.281-0.498-2.329-0.921-3.327
			c-0.078-0.185-0.161-0.31-0.396-0.331C10.572,21.081,10.719,21.476,10.847,21.919z M11.868,22.792
			c0.119,0.459,0.184,1.001,0.247,1.501c0.023,0.176,0.017,0.394,0.067,0.527c0.023,0.064,0.117,0.132,0.18,0.196
			c0.067,0.067,0.122,0.172,0.182,0.148c-0.059-0.822,0.113-1.588,0.017-2.356c-0.033-0.253-0.173-0.535-0.313-0.773
			c-0.255-0.439-0.586-0.791-0.988-1.021C11.438,21.551,11.698,22.139,11.868,22.792z M20.152,22.94
			c-0.046,0.624,0.05,1.377,0.034,2.175c0.238-0.109,0.226-0.458,0.28-0.791c0.184-1.151,0.599-2.269,0.906-3.21
			C20.763,21.572,20.221,22.02,20.152,22.94z M18.309,23.353c-0.013,0.435,0.023,0.822,0.017,1.251
			c0.239-0.029,0.431-0.104,0.643-0.163c0-0.414,0-0.827-0.034-1.203C18.75,23.3,18.524,23.321,18.309,23.353z M13.747,24.441
			c0.208,0.059,0.41,0.125,0.626,0.18c-0.013-0.429,0.017-0.816,0.015-1.234c-0.209-0.038-0.423-0.069-0.641-0.099
			C13.747,23.67,13.747,24.056,13.747,24.441z M17.467,23.403c0.013,0.439-0.027,1.046,0.034,1.333
			c0.15-0.035,0.334-0.038,0.494-0.064c-0.002-0.432,0.01-0.877-0.017-1.285C17.8,23.382,17.656,23.416,17.467,23.403z
			 M15.574,23.434c0.004,0.454,0,0.9-0.017,1.335c0.188,0.038,0.446,0.007,0.659,0.017c0-0.456,0-0.912,0-1.366
			C15.99,23.412,15.806,23.449,15.574,23.434z M16.546,23.419c0.011,0.45-0.023,0.944,0.015,1.366
			c0.182-0.029,0.408-0.01,0.594-0.033c0-0.443,0-0.89,0-1.333C16.953,23.419,16.75,23.419,16.546,23.419z M12.855,25.462
			c0.184,0.106,0.341,0.24,0.561,0.312c0-0.373,0-0.747,0-1.12c-0.188-0.079-0.373-0.165-0.544-0.264
			C12.862,24.742,12.893,25.135,12.855,25.462z M19.279,24.671c0.011,0.352,0.025,0.7,0.017,1.069
			c0.213-0.078,0.376-0.205,0.561-0.312c-0.017-0.33,0.034-0.864-0.033-1.038C19.654,24.496,19.459,24.575,19.279,24.671z
			 M13.747,25.939c0.209,0.048,0.383,0.132,0.609,0.165c0.029-0.361,0.011-0.768,0.017-1.152c-0.216-0.051-0.418-0.111-0.626-0.166
			C13.749,25.165,13.74,25.663,13.747,25.939z M18.325,24.935c-0.004,0.393,0,0.778,0.017,1.152
			c0.232-0.042,0.425-0.123,0.626-0.198c-0.023-0.356,0.042-0.802-0.034-1.104C18.737,24.842,18.545,24.903,18.325,24.935z
			 M14.684,26.186c0.197,0.011,0.358,0.059,0.561,0.064c0-0.389,0-0.778,0-1.169c-0.192,0-0.394-0.078-0.561-0.049
			C14.692,25.36,14.678,25.807,14.684,26.186z M16.546,25.1c0,0.41,0,0.822,0,1.234c0.218,0.011,0.387-0.029,0.609-0.017
			c0-0.412,0-0.824,0-1.236C16.909,25.077,16.798,25.108,16.546,25.1z M15.59,25.1c-0.021,0.006-0.034,0.021-0.034,0.048
			c0,0.379,0,0.758,0,1.137c0.213,0.017,0.425,0.035,0.659,0.033c0-0.401,0-0.802,0-1.203C16.007,25.111,15.776,25.127,15.59,25.1z
			 M10.386,26.25c-1.245,0.513-2.518,0.998-3.756,1.518c0.268,0.238,0.862,0.276,0.873,0.707c0.008,0.295-0.203,0.575-0.247,0.89
			c1.331-0.492,2.601-1.047,3.921-1.549C10.853,27.356,10.583,26.838,10.386,26.25z M22.228,26.498
			c-0.188,0.613-0.519,1.086-0.873,1.532c0.448,0.174,0.878,0.364,1.335,0.527c0.301-0.45,0.554-0.95,0.64-1.613
			C22.958,26.799,22.617,26.625,22.228,26.498z M27.516,28.327c-0.397-0.392-1.161-0.826-1.846-0.873
			c-0.617-0.041-0.981,0.168-1.318,0.43c0.178,0.059,0.325,0.148,0.511,0.196c0.239-0.192,0.532-0.355,0.923-0.312
			c0.793,0.088,1.211,0.866,1.582,1.366c0.383,0.145,0.749,0.304,1.12,0.46C28.121,29.264,27.911,28.718,27.516,28.327z
			 M5.692,28.13c-0.184,0.075-0.396,0.169-0.594,0.246c-0.186,0.073-0.41,0.12-0.559,0.214c-0.239,0.15-0.345,0.41-0.561,0.577
			c0.124,0.344,0.268,0.664,0.396,1.005c0.343-0.036,0.624,0.046,0.906,0c0.176-0.029,0.36-0.148,0.527-0.216
			C6,29.881,6.176,29.817,6.35,29.744c0.092-0.366,0.213-0.699,0.297-1.071C6.337,28.482,6.019,28.301,5.692,28.13z M25.737,28.574
			c-0.211-0.038-0.357,0.088-0.378,0.213c-0.078,0.459,0.617,0.438,1.052,0.398C26.256,28.999,26.026,28.625,25.737,28.574z
			 M24.04,28.672c0.065,0.454,0.247,0.828,0.527,1.104c0.41,0.406,1.293,0.778,2.059,0.774c0.515-0.005,1.025-0.212,1.563-0.216
			c-0.186-0.057-0.366-0.145-0.575-0.23c-0.149-0.061-0.427-0.224-0.578-0.229c-0.078-0.003-0.18,0.05-0.262,0.066
			c-1.097,0.197-2.189-0.008-2.208-1.088c-0.163-0.088-0.358-0.148-0.527-0.23C24.04,28.64,24.04,28.658,24.04,28.672z"/>
		<path fill-rule="evenodd" clip-rule="evenodd" d="M13.564,12.894c0.578-0.064,0.981,0.227,1.187,0.643
			c0.146,0.299,0.264,0.841,0.115,1.334c-0.132,0.432-0.467,0.922-0.774,1.367c-0.144,0.208-0.305,0.417-0.462,0.609
			c-0.375,0.464-0.755,1.05-1.664,0.972c-0.655-0.058-1.322-0.507-1.664-1.121c-0.138-0.25-0.215-0.557-0.345-0.856
			c-0.176-0.408-0.396-0.698-0.329-1.285c0.069-0.621,0.563-1.116,1.17-1.285c0.389-0.109,0.883-0.154,1.35-0.214
			C12.631,12.997,13.113,12.943,13.564,12.894z"/>
		<path fill-rule="evenodd" clip-rule="evenodd" d="M18.819,12.894c0.011-0.002,0.19-0.022,0.281-0.017
			c0.485,0.031,0.979,0.115,1.481,0.181c0.502,0.066,1.029,0.103,1.417,0.231c0.599,0.199,1.253,0.774,1.103,1.713
			c-0.067,0.419-0.333,0.896-0.494,1.285c-0.056,0.135-0.098,0.288-0.165,0.411c-0.278,0.517-0.986,1.058-1.664,1.121
			c-0.232,0.021-0.457-0.001-0.643-0.065c-0.557-0.197-0.983-0.839-1.299-1.269c-0.201-0.272-0.35-0.507-0.511-0.774
			c-0.138-0.227-0.341-0.501-0.446-0.84C17.597,13.955,18.081,13.006,18.819,12.894z"/>
		<path fill-rule="evenodd" clip-rule="evenodd" d="M16.101,16.864c0.061,0.779,0.033,1.762,0.033,2.651
			c0,0.297,0.052,0.648,0,0.889c-0.04,0.183-0.312,0.415-0.462,0.562c-0.161,0.156-0.4,0.394-0.643,0.379
			c-0.347-0.023-0.481-0.609-0.51-0.988c-0.08-1.044,0.184-1.885,0.625-2.505c0.283-0.394,0.584-0.759,0.939-0.987
			C16.09,16.864,16.095,16.864,16.101,16.864z"/>
		<path fill-rule="evenodd" clip-rule="evenodd" d="M16.578,16.93c0-0.024-0.002-0.047,0.017-0.05c0.01,0,0.023,0,0.034,0
			c0.885,0.729,1.699,1.709,1.565,3.443c-0.033,0.41-0.146,0.998-0.479,1.038c-0.253,0.029-0.479-0.222-0.643-0.379
			c-0.153-0.153-0.429-0.355-0.477-0.544c-0.059-0.241,0-0.593,0-0.89C16.595,18.708,16.561,17.764,16.578,16.93z"/>
	</g>
</g>
</svg>
