<?xml version="1.0" encoding="utf-8"?>
<!-- Generator: Adobe Illustrator 15.0.0, SVG Export Plug-In . SVG Version: 6.00 Build 0)  -->
<!DOCTYPE svg PUBLIC "-//W3C//DTD SVG 1.1//EN" "http://www.w3.org/Graphics/SVG/1.1/DTD/svg11.dtd">
<svg version="1.1" id="Layer_1" xmlns="http://www.w3.org/2000/svg" xmlns:xlink="http://www.w3.org/1999/xlink" x="0px" y="0px"
	 width="15.228px" height="15.228px" viewBox="0 0 15.228 15.228" enable-background="new 0 0 15.228 15.228" xml:space="preserve">
<g>
	<path fill-rule="evenodd" clip-rule="evenodd" d="M14.476,9.512c-0.011,0.186-0.128,0.195-0.292,0.262
		c-1.208,0.483-2.486,1.006-3.682,1.476c0.021,0.251-0.006,0.509-0.039,0.73c0.105,0.051,0.242,0.105,0.393,0.169
		c0.215,0.091,0.466,0.131,0.392,0.453c0.141-0.059,0.296-0.141,0.484-0.169c0.195-0.029,0.406,0.005,0.584,0.062
		c0.323,0.104,0.615,0.276,0.823,0.5c0.11,0.118,0.178,0.255,0.276,0.384c0.186,0.245,0.43,0.434,0.669,0.653
		c0.102,0.094,0.31,0.214,0.314,0.346c0.012,0.281-0.369,0.186-0.614,0.17c-0.159-0.011-0.353-0.016-0.516-0.016
		c-0.376,0-0.64,0.106-0.999,0.077c-0.628-0.052-1.138-0.375-1.337-0.838c-0.028-0.064-0.047-0.128-0.069-0.208
		c-0.068,0.042-0.121,0.142-0.23,0.154c-0.146,0.016-0.36-0.119-0.484-0.17c-0.173-0.068-0.331-0.121-0.462-0.184
		c-0.484,0.439-1.272,0.632-2.175,0.622c-0.428-0.004-0.834-0.066-1.191-0.185c-0.362-0.119-0.64-0.308-0.869-0.53
		c-0.826,0.337-1.707,0.689-2.566,1.03c-0.12,0.047-0.255,0.128-0.361,0.146c-0.137,0.023-0.295,0.005-0.438,0
		c-0.268-0.009-0.558-0.012-0.846-0.015c-0.235-0.003-0.506,0.045-0.499-0.192c0.003-0.125,0.164-0.242,0.261-0.338
		c0.214-0.214,0.389-0.384,0.6-0.593c0.099-0.097,0.193-0.228,0.3-0.292c0.104-0.062,0.237-0.096,0.361-0.146
		c0.822-0.332,1.688-0.679,2.506-1.007C4.75,11.677,4.731,11.45,4.752,11.25c-1.448-0.695-2.92-1.398-4.251-2.236
		C0.417,8.959,0.319,8.908,0.217,8.835C0.124,8.771,0.008,8.693,0.002,8.59c-0.02-0.331,0.529-0.158,0.73-0.115
		C2.044,8.753,3.265,9.221,4.43,9.62c-0.018-0.179-0.178-0.208-0.3-0.292c-0.428-0.292-0.65-1.017-0.516-1.745
		C3.623,7.54,3.633,7.481,3.646,7.421c0.01-0.05,0.034-0.13,0.03-0.161c-0.007-0.052-0.14-0.178-0.177-0.223
		C3.084,6.53,2.81,5.898,2.685,5.085C2.525,4.046,2.789,3.173,3.191,2.541c0.416-0.653,0.978-1.133,1.722-1.438
		c1.041-0.424,2.731-0.646,4.12-0.361c0.441,0.091,0.861,0.197,1.238,0.338c0.768,0.289,1.338,0.795,1.744,1.415
		c0.412,0.628,0.689,1.512,0.585,2.529c-0.099,0.95-0.485,1.59-1.015,2.145c0.224,0.734,0.123,1.806-0.415,2.122
		c-0.002,0.006-0.008,0.008-0.008,0.016c0.742-0.303,1.551-0.619,2.329-0.931c0.162-0.065,0.33-0.191,0.484-0.077
		c0.164-0.07,0.333-0.143,0.515-0.215c0.062-0.025,0.127-0.052,0.192-0.046c0.094,0.009,0.188,0.111,0.253,0.185
		c0.076,0.083,0.135,0.154,0.185,0.253c0.087,0.172,0.162,0.519,0.047,0.715c-0.05,0.083-0.23,0.141-0.339,0.184
		C14.704,9.424,14.586,9.463,14.476,9.512z M12.247,4.624c0-1.347-0.634-2.24-1.407-2.829c-0.262-0.199-0.592-0.336-0.961-0.454
		c-0.688-0.218-1.558-0.39-2.498-0.346C6.506,1.036,5.738,1.184,5.098,1.441C4.434,1.709,3.962,2.088,3.576,2.648
		C3.209,3.183,2.929,3.9,3.022,4.793C3.102,5.542,3.349,6.2,3.691,6.684C3.71,6.71,3.75,6.769,3.769,6.753
		c0.049-0.287,0.058-0.594,0.03-0.884c-0.026-0.277-0.151-0.508-0.215-0.73C3.518,4.91,3.49,4.572,3.515,4.278
		C3.533,4.049,3.658,3.7,3.884,3.701c0.113,0.001,0.186,0.088,0.185,0.192C4.065,4.032,3.941,4.072,3.906,4.186
		c-0.054,0.176-0.021,0.402,0,0.607c0.042,0.416,0.232,0.656,0.27,1.068c0.059,0.664-0.089,1.237-0.192,1.791
		C3.91,8.045,3.973,8.512,4.13,8.79c0.138,0.243,0.41,0.347,0.691,0.438c0.245,0.08,0.485,0.151,0.669,0.276
		c0.395,0.271,0.618,0.568,0.737,1.146c0.378,0.126,0.905,0.133,1.415,0.123c0.509-0.01,1.025-0.004,1.383-0.153
		c0.025-0.365,0.191-0.585,0.369-0.776c0.268-0.288,0.618-0.494,1.03-0.631c0.193-0.063,0.414-0.123,0.576-0.254
		c0.266-0.213,0.372-0.78,0.315-1.229c-0.05-0.402-0.165-0.771-0.207-1.176c-0.049-0.462-0.005-0.879,0.115-1.222
		C11.281,5.169,11.348,5,11.37,4.785c0.021-0.201,0.065-0.448,0-0.63c-0.037-0.105-0.168-0.146-0.161-0.292
		c0.004-0.093,0.084-0.182,0.2-0.177c0.095,0.003,0.196,0.114,0.253,0.208c0.173,0.284,0.12,0.891,0.031,1.214
		c-0.062,0.222-0.19,0.466-0.216,0.715c-0.03,0.301-0.012,0.578,0.023,0.861C11.95,6.181,12.247,5.524,12.247,4.624z M14.622,8.436
		c-0.143,0.063-0.291,0.12-0.438,0.177c0.07,0.173,0.161,0.325,0.208,0.522c0.158-0.051,0.303-0.117,0.453-0.177
		C14.854,8.701,14.746,8.561,14.622,8.436z M13.761,8.667c-0.052,0.03-0.124,0.04-0.169,0.077c0.133,0.216,0.241,0.455,0.3,0.746
		c0.065-0.02,0.114-0.055,0.185-0.069C14.016,9.125,13.911,8.873,13.761,8.667z M13.238,8.882c-0.046,0.005-0.071,0.031-0.115,0.038
		c0.121,0.229,0.237,0.464,0.3,0.753c0.048-0.003,0.068-0.034,0.115-0.038C13.488,9.333,13.374,9.097,13.238,8.882z M4.798,10.842
		c-0.023-0.287-0.1-0.521-0.177-0.753C3.494,9.679,2.335,9.26,1.124,8.958C2.297,9.638,3.533,10.255,4.798,10.842z M12.754,9.067
		c-0.034,0.027-0.092,0.03-0.123,0.062c0.134,0.215,0.241,0.455,0.3,0.745c0.044-0.021,0.102-0.026,0.131-0.062
		C13.013,9.51,12.9,9.271,12.754,9.067z M10.701,9.897c-0.11,0.297-0.221,0.594-0.253,0.969c0.715-0.277,1.414-0.569,2.129-0.846
		c-0.052-0.302-0.161-0.546-0.308-0.754C11.747,9.476,11.221,9.683,10.701,9.897z M5.052,10.219c0.058,0.2,0.136,0.424,0.123,0.677
		c0,0.005,0.001,0.011,0,0.016c-0.032,0.206-0.07,0.4-0.062,0.592c0.032,0.664,0.227,1.063,0.554,1.43
		c0.216,0.241,0.453,0.419,0.792,0.522c0.646,0.198,1.688,0.215,2.321-0.008c0.337-0.119,0.579-0.291,0.799-0.522
		c0.327-0.345,0.544-0.777,0.554-1.422c0.004-0.229-0.042-0.409-0.054-0.607c-0.015-0.242,0.055-0.478,0.115-0.677
		c0.062-0.203,0.154-0.43,0.207-0.6c-0.055,0.02-0.105,0.043-0.161,0.062c-0.185,0.467-0.349,0.911-0.461,1.422
		c-0.038,0.175-0.05,0.355-0.085,0.546c0.001,0-0.006,0.005-0.008,0.008c-0.048,0.136-0.204,0.268-0.354,0.369
		c-0.15,0.103-0.322,0.186-0.484,0.246c-0.928,0.351-2.341,0.212-2.997-0.27c-0.095-0.068-0.328-0.255-0.361-0.368
		c-0.027-0.091-0.019-0.203-0.031-0.3c-0.075-0.598-0.232-1.087-0.43-1.553C4.993,9.696,4.954,9.637,4.845,9.627
		C4.924,9.828,4.992,10.012,5.052,10.219z M5.528,10.626c0.056,0.214,0.086,0.467,0.115,0.7c0.011,0.082,0.008,0.184,0.031,0.246
		c0.011,0.03,0.055,0.062,0.084,0.092c0.031,0.031,0.057,0.08,0.085,0.069c-0.027-0.384,0.053-0.741,0.008-1.1
		c-0.016-0.118-0.081-0.25-0.146-0.361c-0.119-0.205-0.273-0.369-0.461-0.477C5.328,10.047,5.449,10.322,5.528,10.626z
		 M9.395,10.696c-0.021,0.291,0.023,0.643,0.016,1.015c0.111-0.051,0.105-0.214,0.131-0.369c0.086-0.537,0.279-1.059,0.423-1.498
		C9.68,10.057,9.427,10.266,9.395,10.696z M8.534,10.888c-0.006,0.203,0.011,0.384,0.008,0.584c0.111-0.014,0.201-0.049,0.3-0.076
		c0-0.193,0-0.386-0.016-0.562C8.74,10.864,8.635,10.874,8.534,10.888z M6.405,11.396c0.097,0.027,0.191,0.059,0.292,0.084
		c-0.006-0.2,0.008-0.381,0.007-0.576c-0.098-0.018-0.197-0.032-0.299-0.046C6.405,11.037,6.405,11.216,6.405,11.396z M8.142,10.912
		c0.006,0.205-0.013,0.488,0.016,0.622c0.07-0.017,0.156-0.018,0.23-0.03c-0.001-0.201,0.005-0.409-0.008-0.6
		C8.297,10.902,8.229,10.917,8.142,10.912z M7.258,10.926c0.002,0.212,0,0.42-0.008,0.623c0.088,0.018,0.208,0.003,0.308,0.008
		c0-0.213,0-0.426,0-0.638C7.452,10.916,7.366,10.933,7.258,10.926z M7.712,10.919c0.005,0.21-0.011,0.44,0.007,0.638
		c0.085-0.014,0.19-0.005,0.277-0.016c0-0.207,0-0.415,0-0.622C7.901,10.919,7.807,10.919,7.712,10.919z M5.989,11.873
		c0.086,0.05,0.159,0.112,0.262,0.146c0-0.174,0-0.349,0-0.522c-0.088-0.037-0.174-0.077-0.254-0.123
		C5.992,11.537,6.007,11.72,5.989,11.873z M8.987,11.503c0.005,0.164,0.012,0.327,0.008,0.499c0.1-0.036,0.176-0.096,0.262-0.146
		c-0.008-0.154,0.016-0.403-0.016-0.484C9.162,11.421,9.071,11.458,8.987,11.503z M6.405,12.095
		c0.098,0.022,0.179,0.062,0.284,0.077c0.014-0.169,0.005-0.358,0.008-0.538c-0.101-0.023-0.195-0.052-0.292-0.077
		C6.406,11.734,6.402,11.966,6.405,12.095z M8.542,11.626c-0.002,0.184,0,0.363,0.008,0.538c0.108-0.02,0.198-0.058,0.292-0.093
		c-0.011-0.166,0.02-0.374-0.016-0.515C8.734,11.583,8.645,11.612,8.542,11.626z M6.843,12.21c0.092,0.005,0.167,0.027,0.262,0.03
		c0-0.182,0-0.363,0-0.546c-0.09,0-0.184-0.036-0.262-0.022C6.847,11.825,6.84,12.034,6.843,12.21z M7.712,11.704
		c0,0.191,0,0.384,0,0.576c0.102,0.005,0.181-0.014,0.284-0.008c0-0.192,0-0.385,0-0.577C7.881,11.693,7.829,11.708,7.712,11.704z
		 M7.266,11.704c-0.01,0.003-0.016,0.01-0.016,0.022c0,0.177,0,0.354,0,0.53c0.1,0.008,0.198,0.017,0.308,0.016
		c0-0.188,0-0.374,0-0.562C7.46,11.708,7.353,11.716,7.266,11.704z M4.837,12.241c-0.581,0.239-1.175,0.466-1.753,0.708
		c0.125,0.111,0.402,0.129,0.407,0.33c0.004,0.138-0.095,0.269-0.115,0.415c0.621-0.229,1.214-0.488,1.83-0.723
		C5.055,12.756,4.929,12.515,4.837,12.241z M10.363,12.356c-0.088,0.286-0.242,0.507-0.407,0.715c0.209,0.081,0.41,0.17,0.623,0.246
		c0.141-0.21,0.259-0.443,0.299-0.753C10.704,12.497,10.545,12.416,10.363,12.356z M12.831,13.209
		c-0.186-0.183-0.542-0.386-0.861-0.407c-0.288-0.02-0.458,0.078-0.615,0.2c0.083,0.027,0.151,0.069,0.238,0.092
		c0.111-0.09,0.248-0.166,0.431-0.146c0.37,0.041,0.565,0.404,0.738,0.638c0.179,0.067,0.35,0.142,0.522,0.215
		C13.113,13.647,13.016,13.392,12.831,13.209z M2.646,13.118c-0.086,0.035-0.185,0.079-0.277,0.115
		c-0.087,0.034-0.191,0.056-0.261,0.1c-0.111,0.07-0.161,0.191-0.262,0.27c0.058,0.16,0.125,0.31,0.185,0.469
		c0.16-0.017,0.291,0.021,0.423,0c0.082-0.014,0.168-0.069,0.246-0.101c0.09-0.035,0.172-0.065,0.253-0.1
		c0.043-0.171,0.1-0.326,0.139-0.5C2.947,13.282,2.799,13.198,2.646,13.118z M12.001,13.325c-0.099-0.018-0.167,0.041-0.177,0.1
		c-0.036,0.214,0.288,0.204,0.491,0.186C12.243,13.523,12.136,13.349,12.001,13.325z M11.209,13.371
		c0.03,0.212,0.115,0.387,0.246,0.516c0.191,0.189,0.604,0.363,0.961,0.361c0.24-0.002,0.479-0.099,0.729-0.101
		c-0.087-0.026-0.171-0.067-0.269-0.107c-0.069-0.028-0.199-0.104-0.27-0.107c-0.036-0.001-0.084,0.023-0.122,0.031
		c-0.512,0.092-1.021-0.004-1.03-0.508c-0.076-0.041-0.167-0.069-0.246-0.107C11.209,13.356,11.209,13.364,11.209,13.371z"/>
	<path fill-rule="evenodd" clip-rule="evenodd" d="M6.32,6.007c0.27-0.03,0.458,0.106,0.554,0.3C6.942,6.447,6.997,6.7,6.928,6.93
		C6.866,7.131,6.71,7.36,6.566,7.568C6.499,7.665,6.424,7.763,6.351,7.852c-0.175,0.216-0.353,0.49-0.776,0.454
		C5.269,8.279,4.957,8.069,4.798,7.783c-0.064-0.117-0.101-0.26-0.161-0.399c-0.082-0.19-0.185-0.326-0.153-0.6
		c0.032-0.29,0.263-0.521,0.546-0.6c0.182-0.051,0.412-0.072,0.63-0.1C5.885,6.055,6.109,6.03,6.32,6.007z"/>
	<path fill-rule="evenodd" clip-rule="evenodd" d="M8.772,6.007C8.777,6.006,8.861,5.997,8.903,6C9.13,6.014,9.36,6.053,9.595,6.084
		s0.48,0.048,0.661,0.108c0.279,0.093,0.585,0.361,0.515,0.799c-0.031,0.196-0.155,0.418-0.23,0.6
		c-0.026,0.063-0.046,0.134-0.077,0.192c-0.13,0.241-0.46,0.494-0.776,0.523c-0.108,0.01-0.213,0-0.3-0.031
		C9.127,8.183,8.928,7.883,8.78,7.683C8.687,7.556,8.617,7.446,8.542,7.322C8.478,7.216,8.383,7.088,8.334,6.93
		C8.202,6.502,8.428,6.06,8.772,6.007z"/>
	<path fill-rule="evenodd" clip-rule="evenodd" d="M7.504,7.86C7.532,8.224,7.52,8.682,7.52,9.097c0,0.139,0.024,0.303,0,0.415
		C7.501,9.597,7.374,9.706,7.304,9.774c-0.075,0.073-0.187,0.184-0.3,0.177C6.842,9.94,6.779,9.667,6.766,9.49
		C6.729,9.002,6.852,8.61,7.058,8.321C7.189,8.137,7.33,7.966,7.496,7.86C7.499,7.86,7.501,7.86,7.504,7.86z"/>
	<path fill-rule="evenodd" clip-rule="evenodd" d="M7.727,7.891c0-0.011-0.001-0.022,0.008-0.023c0.005,0,0.011,0,0.016,0
		c0.413,0.34,0.793,0.797,0.73,1.607C8.465,9.666,8.412,9.94,8.257,9.958c-0.118,0.014-0.224-0.104-0.3-0.177
		c-0.071-0.071-0.2-0.166-0.223-0.254c-0.027-0.112,0-0.276,0-0.415C7.734,8.72,7.719,8.28,7.727,7.891z"/>
</g>
</svg>
