<?xml version="1.0" encoding="utf-8"?>
<!-- Generator: Adobe Illustrator 15.0.0, SVG Export Plug-In . SVG Version: 6.00 Build 0)  -->
<!DOCTYPE svg PUBLIC "-//W3C//DTD SVG 1.1//EN" "http://www.w3.org/Graphics/SVG/1.1/DTD/svg11.dtd">
<svg version="1.1" id="Layer_1" xmlns="http://www.w3.org/2000/svg" xmlns:xlink="http://www.w3.org/1999/xlink" x="0px" y="0px"
	 width="144px" height="144px" viewBox="0 0 144 144" enable-background="new 0 0 144 144" xml:space="preserve">
<g>
	<path fill-rule="evenodd" clip-rule="evenodd" d="M136.899,89.957c-0.101,1.754-1.208,1.851-2.762,2.473
		c-11.43,4.571-23.521,9.518-34.824,13.957c0.201,2.377-0.055,4.811-0.363,6.907c0.995,0.481,2.283,0.996,3.708,1.6
		c2.03,0.86,4.409,1.234,3.707,4.289c1.324-0.56,2.794-1.332,4.58-1.6c1.846-0.275,3.842,0.042,5.525,0.582
		c3.052,0.979,5.817,2.613,7.779,4.726c1.045,1.124,1.688,2.413,2.617,3.635c1.757,2.315,4.062,4.1,6.324,6.18
		c0.96,0.882,2.931,2.022,2.981,3.271c0.106,2.66-3.5,1.751-5.816,1.6c-1.504-0.097-3.329-0.145-4.871-0.145
		c-3.559,0-6.056,1.006-9.451,0.727c-5.944-0.487-10.766-3.545-12.649-7.924c-0.263-0.609-0.438-1.205-0.654-1.964
		c-0.648,0.396-1.141,1.339-2.181,1.455c-1.371,0.151-3.4-1.127-4.581-1.6c-1.63-0.654-3.13-1.154-4.361-1.745
		c-4.586,4.165-12.039,5.979-20.574,5.889c-4.041-0.042-7.891-0.631-11.269-1.745c-3.426-1.129-6.046-2.911-8.216-5.016
		c-7.818,3.188-16.153,6.516-24.281,9.741c-1.131,0.449-2.402,1.212-3.417,1.382c-1.289,0.217-2.782,0.047-4.145,0
		c-2.532-0.088-5.271-0.117-7.997-0.146c-2.226-0.023-4.783,0.429-4.725-1.817c0.03-1.184,1.559-2.286,2.472-3.199
		c2.019-2.018,3.672-3.626,5.671-5.598c0.93-0.918,1.825-2.159,2.835-2.763c0.979-0.586,2.248-0.909,3.417-1.381
		c7.78-3.139,15.971-6.42,23.7-9.524c-0.166-1.774-0.343-3.92-0.146-5.816C31.23,99.814,17.312,93.164,4.73,85.231
		c-0.802-0.506-1.72-0.995-2.69-1.672c-0.88-0.615-1.979-1.354-2.035-2.326c-0.183-3.128,5.009-1.495,6.906-1.091
		c12.408,2.641,23.958,7.061,34.969,10.832c-0.165-1.691-1.681-1.972-2.835-2.763c-4.042-2.767-6.146-9.621-4.871-16.503
		c0.076-0.408,0.178-0.963,0.291-1.526c0.095-0.475,0.33-1.237,0.291-1.526c-0.068-0.493-1.323-1.682-1.673-2.108
		c-3.926-4.794-6.526-10.776-7.706-18.466c-1.507-9.824,0.993-18.081,4.798-24.064c3.928-6.177,9.239-10.72,16.285-13.595
		c9.843-4.016,25.834-6.115,38.968-3.417c4.167,0.856,8.146,1.859,11.704,3.199c7.267,2.733,12.661,7.518,16.504,13.376
		c3.895,5.939,6.521,14.304,5.525,23.918c-0.932,8.986-4.583,15.04-9.597,20.284c2.117,6.946,1.169,17.079-3.926,20.065
		c-0.014,0.059-0.073,0.072-0.073,0.146c7.023-2.855,14.672-5.854,22.028-8.797c1.54-0.616,3.127-1.808,4.581-0.728
		c1.555-0.658,3.155-1.347,4.87-2.035c0.587-0.235,1.197-0.496,1.817-0.436c0.892,0.086,1.776,1.051,2.398,1.744
		c0.715,0.794,1.274,1.458,1.745,2.399c0.815,1.627,1.529,4.911,0.437,6.762c-0.466,0.789-2.174,1.331-3.198,1.744
		C139.062,89.126,137.94,89.493,136.899,89.957z M115.816,43.72c0.001-12.745-5.987-21.185-13.304-26.754
		c-2.475-1.882-5.599-3.183-9.088-4.289c-6.501-2.06-14.737-3.685-23.628-3.271c-8.278,0.385-15.537,1.778-21.592,4.216
		c-6.282,2.53-10.75,6.114-14.395,11.415c-3.476,5.055-6.126,11.845-5.234,20.283c0.748,7.083,3.079,13.311,6.325,17.884
		c0.18,0.253,0.556,0.808,0.727,0.654c0.466-2.714,0.549-5.615,0.291-8.361c-0.247-2.625-1.433-4.807-2.036-6.906
		c-0.622-2.164-0.883-5.357-0.654-8.143c0.178-2.16,1.355-5.468,3.49-5.453c1.071,0.007,1.761,0.829,1.744,1.817
		c-0.021,1.307-1.193,1.686-1.526,2.763c-0.515,1.667-0.193,3.799,0,5.744c0.392,3.934,2.196,6.205,2.544,10.105
		c0.561,6.279-0.843,11.699-1.816,16.939c-0.692,3.722-0.106,8.13,1.381,10.76c1.302,2.302,3.886,3.279,6.543,4.144
		c2.32,0.757,4.591,1.432,6.325,2.617c3.732,2.553,5.852,5.371,6.979,10.833c3.57,1.194,8.562,1.259,13.378,1.163
		c4.811-0.095,9.699-0.036,13.085-1.453c0.236-3.455,1.809-5.533,3.49-7.343c2.528-2.724,5.848-4.674,9.741-5.962
		c1.829-0.605,3.914-1.161,5.453-2.399c2.505-2.016,3.511-7.382,2.98-11.632c-0.475-3.805-1.562-7.292-1.963-11.123
		c-0.456-4.367-0.047-8.312,1.091-11.56c0.536-1.532,1.166-3.129,1.381-5.162c0.201-1.901,0.619-4.233,0-5.961
		c-0.355-0.994-1.586-1.387-1.526-2.763c0.038-0.877,0.793-1.716,1.89-1.672c0.896,0.036,1.862,1.077,2.399,1.962
		c1.632,2.689,1.135,8.428,0.291,11.487c-0.578,2.095-1.798,4.407-2.036,6.761c-0.288,2.851-0.113,5.464,0.219,8.143
		C113.01,58.451,115.816,52.236,115.816,43.72z M138.281,79.778c-1.344,0.597-2.749,1.13-4.144,1.673
		c0.664,1.637,1.526,3.077,1.962,4.943c1.499-0.488,2.863-1.11,4.29-1.672C140.48,82.28,139.458,80.953,138.281,79.778z
		 M130.139,81.96c-0.495,0.281-1.174,0.377-1.6,0.728c1.256,2.04,2.285,4.306,2.836,7.052c0.619-0.18,1.083-0.516,1.744-0.655
		C132.55,86.285,131.56,83.907,130.139,81.96z M125.194,83.996c-0.435,0.049-0.673,0.296-1.09,0.363
		c1.147,2.173,2.248,4.391,2.835,7.124c0.454-0.031,0.646-0.323,1.091-0.363C127.563,88.267,126.478,86.033,125.194,83.996z
		 M45.37,102.534c-0.222-2.71-0.942-4.922-1.672-7.124c-10.665-3.876-21.631-7.838-33.079-10.688
		C21.716,91.147,33.4,96.983,45.37,102.534z M120.615,85.74c-0.32,0.262-0.871,0.293-1.164,0.582
		c1.265,2.031,2.28,4.312,2.836,7.052c0.41-0.195,0.964-0.247,1.235-0.581C123.061,89.935,122,87.676,120.615,85.74z
		 M101.204,93.592c-1.045,2.809-2.091,5.616-2.399,9.161c6.765-2.614,13.374-5.383,20.138-7.997
		c-0.491-2.854-1.524-5.164-2.908-7.126C111.088,89.615,106.11,91.568,101.204,93.592z M47.769,96.646
		c0.548,1.89,1.281,4.008,1.163,6.397c-0.002,0.047,0.008,0.099,0,0.146c-0.307,1.948-0.667,3.793-0.581,5.599
		c0.3,6.284,2.142,10.056,5.234,13.521c2.04,2.286,4.288,3.961,7.488,4.943c6.116,1.879,15.975,2.036,21.955-0.072
		c3.189-1.125,5.479-2.75,7.562-4.943c3.092-3.258,5.141-7.351,5.234-13.449c0.033-2.155-0.395-3.868-0.509-5.744
		c-0.142-2.294,0.521-4.512,1.09-6.397c0.58-1.92,1.463-4.068,1.963-5.671c-0.524,0.179-1,0.406-1.526,0.582
		c-1.747,4.408-3.301,8.61-4.362,13.449c-0.361,1.649-0.471,3.355-0.8,5.162c0.002-0.007-0.061,0.041-0.072,0.072
		c-0.455,1.283-1.936,2.529-3.345,3.49c-1.423,0.971-3.056,1.751-4.58,2.326c-8.777,3.314-22.146,2.009-28.353-2.544
		c-0.893-0.655-3.098-2.412-3.417-3.49c-0.253-0.854-0.176-1.917-0.291-2.835c-0.71-5.651-2.205-10.276-4.071-14.686
		c-0.342-0.808-0.705-1.367-1.744-1.454C46.555,92.938,47.2,94.682,47.769,96.646z M52.276,100.499
		c0.523,2.017,0.808,4.412,1.091,6.615c0.1,0.781,0.068,1.739,0.291,2.327c0.107,0.285,0.521,0.588,0.799,0.872
		c0.294,0.299,0.535,0.758,0.8,0.654c-0.259-3.63,0.502-7.007,0.073-10.396c-0.142-1.118-0.768-2.364-1.382-3.417
		c-1.131-1.939-2.584-3.491-4.362-4.507C50.382,95.018,51.527,97.615,52.276,100.499z M88.845,101.153
		c-0.204,2.752,0.218,6.07,0.146,9.597c1.05-0.484,1-2.021,1.235-3.49c0.816-5.084,2.644-10.013,3.999-14.176
		C91.54,95.109,89.146,97.088,88.845,101.153z M80.702,102.971c-0.057,1.922,0.105,3.626,0.073,5.525
		c1.056-0.132,1.907-0.467,2.835-0.728c0.006-1.824,0.008-3.642-0.146-5.307C82.655,102.743,81.656,102.834,80.702,102.971z
		 M60.564,107.769c0.923,0.265,1.812,0.562,2.763,0.8c-0.054-1.895,0.081-3.602,0.072-5.452c-0.926-0.164-1.874-0.307-2.835-0.437
		C60.564,104.377,60.564,106.073,60.564,107.769z M76.994,103.188c0.052,1.941-0.124,4.618,0.146,5.89
		c0.663-0.161,1.478-0.171,2.181-0.291c-0.011-1.903,0.044-3.873-0.072-5.671C78.457,103.101,77.824,103.243,76.994,103.188z
		 M68.634,103.334c0.018,2.005-0.004,3.971-0.073,5.889c0.828,0.166,1.961,0.027,2.909,0.072c0-2.011,0-4.022,0-6.033
		C70.466,103.229,69.66,103.391,68.634,103.334z M72.924,103.262c0.047,1.987-0.097,4.167,0.072,6.033
		c0.796-0.124,1.799-0.042,2.617-0.145c0-1.963,0-3.926,0-5.889C74.716,103.262,73.82,103.262,72.924,103.262z M56.638,112.276
		c0.812,0.473,1.504,1.065,2.473,1.381c0-1.647,0-3.296,0-4.943c-0.834-0.354-1.643-0.732-2.399-1.163
		C56.666,109.104,56.804,110.843,56.638,112.276z M84.991,108.787c0.043,1.557,0.105,3.094,0.073,4.726
		c0.941-0.343,1.659-0.91,2.472-1.382c-0.069-1.459,0.153-3.816-0.146-4.58C86.645,108.016,85.783,108.366,84.991,108.787z
		 M60.564,114.385c0.929,0.21,1.692,0.585,2.689,0.727c0.13-1.59,0.053-3.389,0.073-5.089c-0.947-0.216-1.842-0.484-2.763-0.728
		C60.58,110.968,60.541,113.166,60.564,114.385z M80.775,109.949c-0.017,1.737,0,3.44,0.072,5.089
		c1.029-0.182,1.881-0.542,2.763-0.872c-0.096-1.576,0.192-3.537-0.146-4.871C82.602,109.547,81.751,109.812,80.775,109.949z
		 M64.708,115.476c0.869,0.051,1.578,0.263,2.472,0.29c0-1.72,0-3.441,0-5.162c-0.847-0.002-1.736-0.347-2.472-0.217
		C64.747,111.83,64.681,113.8,64.708,115.476z M72.924,110.678c0,1.816,0,3.634,0,5.451c0.968,0.048,1.717-0.124,2.689-0.072
		c0-1.817,0-3.635,0-5.453C74.527,110.583,74.04,110.721,72.924,110.678z M68.706,110.678c-0.091,0.029-0.148,0.093-0.146,0.217
		c0,1.673,0,3.345,0,5.017c0.944,0.075,1.877,0.159,2.909,0.146c0-1.77,0-3.538,0-5.307
		C70.542,110.732,69.526,110.802,68.706,110.678z M45.733,115.766c-5.498,2.258-11.109,4.399-16.576,6.688
		c1.184,1.059,3.809,1.228,3.854,3.126c0.031,1.303-0.899,2.536-1.091,3.926c5.874-2.172,11.477-4.615,17.303-6.834
		C47.793,120.637,46.604,118.36,45.733,115.766z M98.005,116.856c-0.834,2.705-2.288,4.788-3.854,6.761
		c1.979,0.76,3.879,1.599,5.89,2.326c1.333-1.985,2.448-4.191,2.835-7.124C101.23,118.187,99.726,117.414,98.005,116.856z
		 M121.342,124.926c-1.749-1.726-5.128-3.65-8.143-3.853c-2.723-0.183-4.334,0.74-5.816,1.89c0.779,0.264,1.426,0.659,2.254,0.873
		c1.05-0.852,2.344-1.575,4.071-1.382c3.494,0.391,5.345,3.824,6.979,6.034c1.69,0.636,3.308,1.345,4.943,2.035
		C124.018,129.062,123.093,126.654,121.342,124.926z M25.014,124.054c-0.812,0.335-1.738,0.748-2.617,1.091
		c-0.827,0.321-1.814,0.528-2.472,0.945c-1.045,0.662-1.518,1.812-2.472,2.544c0.543,1.517,1.186,2.934,1.745,4.435
		c1.518-0.151,2.756,0.209,3.998,0c0.781-0.131,1.594-0.654,2.326-0.945c0.853-0.338,1.626-0.622,2.399-0.944
		c0.398-1.613,0.937-3.087,1.309-4.726C27.865,125.612,26.459,124.813,25.014,124.054z M113.49,126.017
		c-0.932-0.167-1.577,0.382-1.673,0.944c-0.338,2.02,2.727,1.927,4.653,1.746C115.788,127.889,114.77,126.246,113.49,126.017z
		 M106.002,126.453c0.286,2.004,1.095,3.655,2.326,4.871c1.816,1.792,5.713,3.437,9.088,3.416c2.274-0.013,4.524-0.932,6.906-0.944
		c-0.828-0.251-1.623-0.638-2.544-1.019c-0.655-0.27-1.883-0.992-2.545-1.018c-0.345-0.013-0.8,0.226-1.163,0.291
		c-4.838,0.868-9.657-0.036-9.742-4.799c-0.723-0.391-1.574-0.654-2.326-1.018C106.002,126.308,106.002,126.38,106.002,126.453z"/>
	<path fill-rule="evenodd" clip-rule="evenodd" d="M59.765,56.806c2.546-0.279,4.33,1.004,5.234,2.835
		c0.653,1.324,1.167,3.715,0.509,5.889c-0.578,1.906-2.062,4.068-3.417,6.035c-0.632,0.916-1.35,1.844-2.036,2.689
		c-1.658,2.045-3.336,4.639-7.342,4.289c-2.896-0.253-5.84-2.238-7.343-4.943c-0.615-1.105-0.954-2.457-1.527-3.781
		c-0.778-1.798-1.744-3.08-1.454-5.67c0.308-2.74,2.487-4.925,5.162-5.67c1.723-0.48,3.898-0.68,5.962-0.945
		C55.646,57.258,57.768,57.025,59.765,56.806z"/>
	<path fill-rule="evenodd" clip-rule="evenodd" d="M82.956,56.806c0.049-0.007,0.839-0.098,1.236-0.072
		c2.144,0.136,4.323,0.508,6.543,0.8c2.215,0.29,4.54,0.449,6.251,1.018c2.647,0.879,5.537,3.42,4.872,7.561
		c-0.298,1.852-1.471,3.952-2.182,5.671c-0.246,0.595-0.433,1.271-0.727,1.817c-1.229,2.282-4.357,4.666-7.343,4.943
		c-1.025,0.096-2.019-0.004-2.836-0.291c-2.465-0.867-4.346-3.701-5.743-5.598c-0.883-1.199-1.54-2.238-2.253-3.417
		c-0.605-1-1.502-2.209-1.964-3.708C77.566,61.489,79.694,57.299,82.956,56.806z"/>
	<path fill-rule="evenodd" clip-rule="evenodd" d="M70.96,74.327c0.264,3.443,0.146,7.773,0.146,11.704c0,1.313,0.234,2.861,0,3.926
		c-0.177,0.803-1.376,1.826-2.035,2.473c-0.712,0.696-1.769,1.74-2.836,1.671c-1.536-0.099-2.124-2.688-2.253-4.361
		c-0.354-4.602,0.812-8.316,2.762-11.051c1.24-1.736,2.568-3.355,4.145-4.361C70.911,74.327,70.937,74.327,70.96,74.327z"/>
	<path fill-rule="evenodd" clip-rule="evenodd" d="M73.068,74.617c-0.006-0.103-0.012-0.206,0.073-0.218c0.048,0,0.097,0,0.146,0
		c3.91,3.212,7.505,7.539,6.906,15.194c-0.142,1.816-0.642,4.408-2.108,4.58c-1.124,0.132-2.122-0.974-2.835-1.672
		c-0.682-0.668-1.902-1.568-2.108-2.399c-0.264-1.06,0-2.612,0-3.927C73.142,82.468,72.994,78.304,73.068,74.617z"/>
</g>
</svg>
