<?xml version="1.0" encoding="utf-8"?>
<!-- Generator: Adobe Illustrator 15.0.0, SVG Export Plug-In . SVG Version: 6.00 Build 0)  -->
<!DOCTYPE svg PUBLIC "-//W3C//DTD SVG 1.1//EN" "http://www.w3.org/Graphics/SVG/1.1/DTD/svg11.dtd">
<svg version="1.1" id="Layer_1" xmlns="http://www.w3.org/2000/svg" xmlns:xlink="http://www.w3.org/1999/xlink" x="0px" y="0px"
	 width="25px" height="25px" viewBox="0 0 25 25" enable-background="new 0 0 25 25" xml:space="preserve">
<path fill="#C9302C" d="M2.406,13.531L2.406,13.531L0,15.221h9.566l2.921,9.05l2.949-9.05H25l-7.732-5.498l2.922-8.964l-7.674,5.585
	L4.784,0.729l2.948,9.021L2.406,13.531z M12.487,7.861l0.028-0.029l3.293,2.349l-1.262,3.809h-4.151l-1.26-3.809L12.487,7.861
	L12.487,7.861z M14.148,15.221l-1.662,5.097l-1.689-5.097H14.148z M21.135,14.018h-5.326l1.031-3.093L21.135,14.018z M16.209,8.978
	l-2.662-1.89l4.266-3.035L16.209,8.978z M11.456,7.088L8.764,9.006L7.103,3.938L11.456,7.088z M8.133,10.925l1.003,3.064H3.809
	L8.133,10.925z"/>
</svg>
