<svg xmlns="http://www.w3.org/2000/svg" xmlns:xlink="http://www.w3.org/1999/xlink" version="1.1" x="0px" y="0px" viewBox="0 0 90 112.5" enable-background="new 0 0 90 90" xml:space="preserve"><path d="M9.8,48.1L9.8,48.1L1.4,54h33.4L45,85.6L55.3,54h33.4l-27-19.2L71.9,3.5L45.1,23l-27-19.6l10.3,31.5L9.8,48.1z M45,28.3  l0.1-0.1l11.5,8.2l-4.4,13.3l-14.5,0l-4.4-13.3L45,28.3L45,28.3z M50.8,54L45,71.8L39.1,54L50.8,54z M75.2,49.8l-18.6,0L60.2,39  L75.2,49.8z M58,32.2l-9.3-6.6L63.6,15L58,32.2z M41.4,25.6L32,32.3l-5.8-17.7L41.4,25.6z M29.8,39l3.5,10.7l-18.6,0L29.8,39z"/><text x="0" y="105" fill="#000000" font-size="5px" font-weight="bold" font-family="'Helvetica Neue', Helvetica, Arial-Unicode, Arial, Sans-serif">Created by Kervin Markle</text><text x="0" y="110" fill="#000000" font-size="5px" font-weight="bold" font-family="'Helvetica Neue', Helvetica, Arial-Unicode, Arial, Sans-serif">from the Noun Project</text></svg>